<?xml version="1.0" encoding="UTF-8" standalone="no"?>
<svg
   width="1023.9999"
   height="1023.9999"
   viewBox="0 0 270.93332 270.93332"
   version="1.1"
   id="svg8"
   inkscape:version="1.3.2 (091e20e, 2023-11-25, custom)"
   sodipodi:docname="icon_plain_filled.svg"
   inkscape:export-filename="/home/hj/efftech/audioflow/icon_layer_bottom.png"
   inkscape:export-xdpi="96"
   inkscape:export-ydpi="96"
   xmlns:inkscape="http://www.inkscape.org/namespaces/inkscape"
   xmlns:sodipodi="http://sodipodi.sourceforge.net/DTD/sodipodi-0.dtd"
   xmlns="http://www.w3.org/2000/svg"
   xmlns:svg="http://www.w3.org/2000/svg"
   xmlns:rdf="http://www.w3.org/1999/02/22-rdf-syntax-ns#"
   xmlns:cc="http://creativecommons.org/ns#"
   xmlns:dc="http://purl.org/dc/elements/1.1/">
  <defs
     id="defs2" />
  <sodipodi:namedview
     id="base"
     pagecolor="#ffffff"
     bordercolor="#666666"
     borderopacity="1.0"
     inkscape:pageopacity="0.0"
     inkscape:pageshadow="2"
     inkscape:zoom="1"
     inkscape:cx="457.5"
     inkscape:cy="438.5"
     inkscape:document-units="mm"
     inkscape:current-layer="layer1"
     showgrid="false"
     showguides="true"
     inkscape:guide-bbox="true"
     fit-margin-top="0"
     fit-margin-left="0"
     fit-margin-right="0"
     fit-margin-bottom="0"
     inkscape:window-width="2880"
     inkscape:window-height="1694"
     inkscape:window-x="-11"
     inkscape:window-y="-11"
     inkscape:window-maximized="1"
     inkscape:pagecheckerboard="true"
     units="px"
     inkscape:document-rotation="0"
     inkscape:showpageshadow="2"
     inkscape:deskcolor="#d1d1d1" />
  <metadata
     id="metadata5">
    <rdf:RDF>
      <cc:Work
         rdf:about="">
        <dc:format>image/svg+xml</dc:format>
        <dc:type
           rdf:resource="http://purl.org/dc/dcmitype/StillImage" />
      </cc:Work>
    </rdf:RDF>
  </metadata>
  <g
     inkscape:groupmode="layer"
     id="layer4"
     inkscape:label="Background"
     transform="translate(98.424995,98.424995)"
     style="display:inline" />
  <g
     inkscape:label="Speaker"
     inkscape:groupmode="layer"
     id="layer1"
     transform="translate(146.16305,111.07479)"
     style="display:inline;opacity:1">
    <g
       id="g1">
      <path
         style="fill:#000000;fill-opacity:1;stroke:#000000;stroke-width:2;stroke-dasharray:none;stroke-opacity:1"
         d="m -47.522388,32.612077 c -4.04736,-1.100546 -7.149735,-3.763866 -9.013838,-7.738154 L -57.563287,22.6842 v -56.464228 c 0,-52.346744 0.04925,-56.586944 0.675005,-58.146726 1.566047,-3.90337 4.400241,-6.737565 8.30361,-8.303596 1.544359,-0.61961 4.648197,-0.67502 37.81169,-0.67502 h 36.129214 l 2.229782,0.9016 c 3.151986,1.274481 5.582439,3.561209 7.13351,6.711683 l 1.297788,2.636027 0.106208,55.880433 c 0.10487,55.140721 0.09571,55.915301 -0.693543,58.516649 -1.011123,3.332787 -3.756274,6.494856 -7.037317,8.10609 l -2.24676,1.103317 -35.9317927,0.07617 c -27.6028323,0.05852 -36.3501323,-0.03752 -37.7365393,-0.41454 z M -2.4810311,19.106339 C 7.2132858,16.620559 15.533302,9.7638083 19.811218,0.73471848 c 2.179124,-4.59933318 3.04409,-8.49221398 3.106765,-13.98229948 0.109786,-9.614163 -3.06704,-17.58045 -9.677129,-24.266796 -6.3717045,-6.445214 -14.7330432,-9.888142 -24.013836,-9.888142 -8.922227,0 -16.371326,2.893018 -22.77868,8.846587 -7.973556,7.408849 -11.757973,17.225915 -10.771298,27.941584 0.427217,4.6397406 1.336854,7.8761997 3.366079,11.9763941 4.795182,9.6889849 13.833725,16.3523799 24.916426,18.3689069 2.760708,0.502311 10.5668648,0.142729 13.5594239,-0.624614 z M -5.9167995,-61.46759 c 2.1615234,-0.753841 4.7477617,-2.727729 6.17152627,-4.710295 4.93043963,-6.865506 2.65567073,-16.255602 -4.90746667,-20.257709 -1.7726586,-0.938026 -2.3976411,-1.044705 -6.1202421,-1.044705 -3.587768,0 -4.38522,0.125173 -5.922833,0.929717 -2.419787,1.266126 -4.984829,3.800589 -6.252205,6.177669 -0.948057,1.778176 -1.052601,2.386071 -1.052601,6.120254 0,3.725269 0.106209,4.34631 1.046514,6.120241 3.290928,6.208384 10.3868,8.984215 17.0373075,6.664828 z"
         id="path1270" />
      <path
         style="fill:#000000;fill-opacity:1;stroke:#000000;stroke-width:2;stroke-dasharray:none;stroke-opacity:1"
         d="M -15.243648,5.7108777 C -24.479009,3.3641759 -30.56426,-4.3845164 -30.5525,-13.782739 c 0.0067,-5.690523 1.955962,-10.247477 6.073302,-14.201147 3.88627,-3.731793 8.443011,-5.598722 13.665175,-5.598722 12.0682589,0 21.586912,10.967044 19.7447869,22.749219 C 8.1228018,-5.6656728 4.6750612,-0.17021586 0.39220868,2.7764622 -3.838578,5.6873127 -10.451917,6.9284548 -15.243648,5.7108777 Z"
         id="path1274" />
      <path
         style="fill:none;fill-opacity:0.976471;stroke:#000000;stroke-width:2;stroke-dasharray:none;stroke-opacity:1"
         d="m -37.369904,89.5076 c -5.532146,-0.818232 -11.39704,-4.261083 -14.806339,-8.691721 -7.285951,-9.468639 -6.311959,-22.680028 2.274564,-30.852549 2.881374,-2.742449 5.63485,-4.337532 9.675178,-5.604814 l 2.327431,-0.730017 h 26.987499 26.9875 l 2.245225,0.598357 c 8.092286,2.156609 14.536798,8.660048 16.711332,16.864142 0.788516,2.97492 0.782317,8.121179 -0.01339,11.1125 -2.203281,8.282866 -8.413689,14.50625 -16.826505,16.861655 l -2.116667,0.592622 -25.929166,0.04231 c -14.261041,0.02328 -26.643541,-0.06335 -27.516666,-0.192487 z m 52.122916,-8.97481 c 2.617222,-0.366257 5.836957,-1.994426 7.764468,-3.926363 5.392534,-5.404924 5.42826,-14.554962 0.07762,-19.879125 -1.897798,-1.88841 -3.935362,-3.045269 -6.534332,-3.709974 -4.843629,-1.23879 -9.4542532,-0.03421 -13.1687148,3.440488 -8.4884153,7.940495 -3.9290069,22.391058 7.5977828,24.080369 1.932884,0.283274 2.202836,0.282932 4.263178,-0.0054 z"
         id="path3067" />
      <path
         style="fill:none;fill-opacity:1;stroke:#000000;stroke-width:2;stroke-dasharray:none;stroke-opacity:1"
         d="m -37.89907,147.56425 c -1.772476,-0.30545 -4.791816,-1.18657 -6.197899,-1.80871 -5.520902,-2.44279 -10.289593,-7.41777 -12.55177,-13.09475 -2.286222,-5.73733 -2.1053,-12.6996 0.47807,-18.3971 2.573161,-5.67498 7.867944,-10.54922 13.658755,-12.5739 3.750321,-1.31124 3.675412,-1.30817 31.899357,-1.30817 23.0666,0 26.706827,0.0534 28.485578,0.41807 8.989161,1.84274 16.142293,8.76173 18.359419,17.75845 0.792967,3.21772 0.795369,7.78025 0.0058,10.98302 -2.060633,8.3585 -8.116509,14.66661 -16.644241,17.33751 l -2.327431,0.72895 -27.2520831,0.0353 c -14.9886459,0.0194 -27.5497389,-0.016 -27.9135409,-0.0787 z m 8.206073,-9.92887 c 5.826924,-2.13115 9.530794,-7.44452 9.517099,-13.65272 -0.0087,-3.93093 -1.420233,-7.31223 -4.222358,-10.11435 -1.963846,-1.96385 -4.180901,-3.23774 -6.646273,-3.81887 -7.315104,-1.72429 -14.569381,2.10509 -17.082034,9.01726 -1.395055,3.83771 -0.990002,8.71827 1.014294,12.22141 1.837843,3.21221 5.364353,5.84116 9.107662,6.78957 2.26134,0.57294 6.093301,0.36903 8.31161,-0.4423 z"
         id="path3630" />
      <path
         style="fill:#000000;fill-opacity:1;stroke:#000000;stroke-width:2;stroke-dasharray:none;stroke-opacity:1"
         d="m -32.34282,89.520713 c -5.557198,-0.12985 -6.414458,-0.210405 -8.069792,-0.758312 -6.504636,-2.152994 -11.244855,-6.172692 -14.222889,-12.060986 -1.175332,-2.32392 -1.459817,-3.180458 -1.933286,-5.820833 -1.385962,-7.729001 1.024379,-15.339391 6.547469,-20.672931 2.94237,-2.841389 5.358336,-4.287557 9.456568,-5.660591 l 2.346859,-0.78627 h 27.48498 27.484977 l 2.109328,0.684464 c 3.084168,1.000794 5.162923,2.059326 7.494881,3.816511 2.312762,1.742718 3.886308,3.470622 5.659485,6.21465 2.205069,3.412392 3.230843,6.479712 3.514502,10.50925 0.741162,10.528509 -5.716526,20.033347 -16.067045,23.648514 l -2.196663,0.767236 -21.6958331,0.132291 c -11.9327079,0.07276 -24.4938019,0.06691 -27.9135409,-0.01299 z M 15.358077,80.412765 C 26.350673,78.083461 30.380889,64.613166 22.451453,56.704397 16.863787,51.131293 8.1365294,51.182887 2.549601,56.822052 c -3.26613302,3.296671 -4.595061,7.603297 -3.7852402,12.266726 0.44204199,2.545541 1.612556,4.934598 3.3480692,6.833529 3.6043922,3.943778 8.305038,5.537361 13.245647,4.490458 z"
         id="path3640" />
      <path
         style="fill:#000000;fill-opacity:1;stroke:#000000;stroke-opacity:1"
         d="m 401.6867,975.24487 c -10.1046,-2.67103 -17.29467,-5.54435 -24.06025,-9.61505 -22.72131,-13.67092 -38.01927,-34.78997 -42.98619,-59.34307 -2.28069,-11.27418 -1.5747,-31.37605 1.47144,-41.8964 8.02368,-27.71113 30.33426,-50.94511 57.83147,-60.22502 l 9.74353,-3.2883 48,-0.80275 c 65.22763,-1.09087 160.70666,-0.10921 169.82375,1.74603 18.17398,3.69822 37.72188,15.86178 49.71673,30.93591 18.7714,23.59034 24.74877,54.8111 15.7853,82.44913 -9.30056,28.6774 -29.85492,48.68414 -60.76337,59.14447 l -8.43759,2.85553 -104.56241,-0.0551 c -98.45361,-0.0519 -104.97137,-0.16317 -111.56241,-1.90542 z m 38.8484,-34.8718 c 14.77866,-5.27002 27.4291,-17.87591 32.82244,-32.70685 2.64808,-7.28185 3.59986,-23.43145 1.87158,-31.75652 -1.94712,-9.37924 -6.62681,-17.43985 -14.96687,-25.7799 -12.46897,-12.46898 -23.12112,-16.49907 -41.49938,-15.7007 -15.26703,0.66321 -26.56262,5.60332 -36.55288,15.98637 -9.79074,10.17569 -14.06297,20.37704 -14.78172,35.29622 -1.25815,26.1157 12.62429,46.46886 37.70061,55.27319 5.75697,2.02128 7.9622,2.25186 18.05782,1.88809 8.27537,-0.29818 13.13991,-0.99916 17.3484,-2.4999 z"
         id="path3650"
         transform="matrix(0.26458333,0,0,0.26458333,-146.16305,-111.07479)" />
    </g>
  </g>
</svg>
