<?xml version="1.0" encoding="UTF-8" standalone="no"?>
<svg
   height="960"
   viewBox="0 -960 38400 38400"
   width="960"
   fill="#e3e3e3"
   version="1.1"
   id="svg1"
   xmlns="http://www.w3.org/2000/svg"
   xmlns:svg="http://www.w3.org/2000/svg">
  <defs
     id="defs1" />
  <path
     d="M 22408.533,32277.333 V 28988.587 Q 26018.133,27945.813 28224,24977.92 30429.867,22010.027 30429.867,18240 30429.867,14469.973 28224,11502.08 26018.133,8534.187 22408.533,7491.413 V 4202.667 q 4973.227,1122.986 8101.547,5033.386 3128.32,3910.4 3128.32,9003.947 0,5093.547 -3128.32,9003.947 -3128.32,3910.4 -8101.547,5033.386 z M 4761.6,23092.907 v -9625.6 h 6417.067 L 19200,5445.973 V 31114.24 l -8021.333,-8021.333 z m 17646.933,1604.266 V 11782.827 q 1885.014,882.346 2947.84,2647.04 1062.827,1764.693 1062.827,3850.24 0,2045.44 -1062.827,3790.08 -1062.826,1744.64 -2947.84,2626.986 z M 15991.467,13226.667 12542.293,16675.84 h -4572.16 v 3208.533 h 4572.16 l 3449.174,3449.174 z m -4010.667,5053.44 z"
     id="path1"
     style="fill:#000000;stroke-width:40.1067" />
</svg>
