<?xml version="1.0" encoding="UTF-8" standalone="no"?>
<svg
   width="1023.9999"
   height="1023.9999"
   viewBox="0 0 270.93332 270.93332"
   version="1.1"
   id="svg8"
   inkscape:version="1.3.2 (091e20e, 2023-11-25, custom)"
   sodipodi:docname="icon_plain.svg"
   inkscape:export-filename="/home/hj/efftech/audioflow/icon_layer_bottom.png"
   inkscape:export-xdpi="96"
   inkscape:export-ydpi="96"
   xmlns:inkscape="http://www.inkscape.org/namespaces/inkscape"
   xmlns:sodipodi="http://sodipodi.sourceforge.net/DTD/sodipodi-0.dtd"
   xmlns="http://www.w3.org/2000/svg"
   xmlns:svg="http://www.w3.org/2000/svg"
   xmlns:rdf="http://www.w3.org/1999/02/22-rdf-syntax-ns#"
   xmlns:cc="http://creativecommons.org/ns#"
   xmlns:dc="http://purl.org/dc/elements/1.1/">
  <defs
     id="defs2" />
  <sodipodi:namedview
     id="base"
     pagecolor="#ffffff"
     bordercolor="#666666"
     borderopacity="1.0"
     inkscape:pageopacity="0.0"
     inkscape:pageshadow="2"
     inkscape:zoom="1"
     inkscape:cx="457"
     inkscape:cy="438.5"
     inkscape:document-units="mm"
     inkscape:current-layer="layer1"
     showgrid="false"
     showguides="true"
     inkscape:guide-bbox="true"
     fit-margin-top="0"
     fit-margin-left="0"
     fit-margin-right="0"
     fit-margin-bottom="0"
     inkscape:window-width="2880"
     inkscape:window-height="1694"
     inkscape:window-x="-11"
     inkscape:window-y="-11"
     inkscape:window-maximized="1"
     inkscape:pagecheckerboard="true"
     units="px"
     inkscape:document-rotation="0"
     inkscape:showpageshadow="2"
     inkscape:deskcolor="#d1d1d1" />
  <metadata
     id="metadata5">
    <rdf:RDF>
      <cc:Work
         rdf:about="">
        <dc:format>image/svg+xml</dc:format>
        <dc:type
           rdf:resource="http://purl.org/dc/dcmitype/StillImage" />
      </cc:Work>
    </rdf:RDF>
  </metadata>
  <g
     inkscape:groupmode="layer"
     id="layer4"
     inkscape:label="Background"
     transform="translate(98.424995,98.424995)"
     style="display:inline" />
  <g
     inkscape:label="Speaker"
     inkscape:groupmode="layer"
     id="layer1"
     transform="translate(146.16305,111.07479)"
     style="display:inline;opacity:1">
    <g
       id="g3065"
       style="fill:none;stroke:#000000;stroke-opacity:1;stroke-width:2;stroke-dasharray:none">
      <path
         style="fill:none;fill-opacity:0.976471;stroke:#000000;stroke-width:2;stroke-opacity:1;stroke-dasharray:none"
         d="m -47.522388,32.612077 c -4.04736,-1.100546 -7.149735,-3.763866 -9.013838,-7.738154 L -57.563287,22.6842 v -56.464228 c 0,-52.346744 0.04925,-56.586944 0.675005,-58.146726 1.566047,-3.90337 4.400241,-6.737565 8.30361,-8.303596 1.544359,-0.61961 4.648197,-0.67502 37.81169,-0.67502 h 36.129214 l 2.229782,0.9016 c 3.151986,1.274481 5.582439,3.561209 7.13351,6.711683 l 1.297788,2.636027 0.106208,55.880433 c 0.10487,55.140721 0.09571,55.915301 -0.693543,58.516649 -1.011123,3.332787 -3.756274,6.494856 -7.037317,8.10609 l -2.24676,1.103317 -35.9317927,0.07617 c -27.6028323,0.05852 -36.3501323,-0.03752 -37.7365393,-0.41454 z M -2.4810311,19.106339 C 7.2132858,16.620559 15.533302,9.7638083 19.811218,0.73471848 c 2.179124,-4.59933318 3.04409,-8.49221398 3.106765,-13.98229948 0.109786,-9.614163 -3.06704,-17.58045 -9.677129,-24.266796 -6.3717045,-6.445214 -14.7330432,-9.888142 -24.013836,-9.888142 -8.922227,0 -16.371326,2.893018 -22.77868,8.846587 -7.973556,7.408849 -11.757973,17.225915 -10.771298,27.941584 0.427217,4.6397406 1.336854,7.8761997 3.366079,11.9763941 4.795182,9.6889849 13.833725,16.3523799 24.916426,18.3689069 2.760708,0.502311 10.5668648,0.142729 13.5594239,-0.624614 z M -5.9167995,-61.46759 c 2.1615234,-0.753841 4.7477617,-2.727729 6.17152627,-4.710295 4.93043963,-6.865506 2.65567073,-16.255602 -4.90746667,-20.257709 -1.7726586,-0.938026 -2.3976411,-1.044705 -6.1202421,-1.044705 -3.587768,0 -4.38522,0.125173 -5.922833,0.929717 -2.419787,1.266126 -4.984829,3.800589 -6.252205,6.177669 -0.948057,1.778176 -1.052601,2.386071 -1.052601,6.120254 0,3.725269 0.106209,4.34631 1.046514,6.120241 3.290928,6.208384 10.3868,8.984215 17.0373075,6.664828 z"
         id="path1270" />
      <path
         style="fill:none;fill-opacity:0.976471;stroke:#000000;stroke-width:2;stroke-opacity:1;stroke-dasharray:none"
         d="M -15.243648,5.7108777 C -24.479009,3.3641759 -30.56426,-4.3845164 -30.5525,-13.782739 c 0.0067,-5.690523 1.955962,-10.247477 6.073302,-14.201147 3.88627,-3.731793 8.443011,-5.598722 13.665175,-5.598722 12.0682589,0 21.586912,10.967044 19.7447869,22.749219 C 8.1228018,-5.6656728 4.6750612,-0.17021586 0.39220868,2.7764622 -3.838578,5.6873127 -10.451917,6.9284548 -15.243648,5.7108777 Z"
         id="path1274" />
      <path
         style="fill:none;fill-opacity:0.976471;stroke:#000000;stroke-opacity:1;stroke-width:7.55905522;stroke-dasharray:none"
         d="m 411.1867,758.10668 c -20.9089,-3.09253 -43.07543,-16.10488 -55.96097,-32.8506 -27.53745,-35.78698 -23.85622,-85.71979 8.59678,-116.60806 10.89023,-10.36516 21.29707,-16.39382 36.5676,-21.18355 l 8.79659,-2.75912 h 102 102 l 8.48589,2.26151 c 30.58502,8.15096 54.94223,32.73089 63.16094,63.73849 2.98022,11.24379 2.95679,30.69422 -0.0506,42 -8.32736,31.30532 -31.79977,54.82677 -63.59624,63.72909 l -8,2.23983 -98,0.15992 c -53.9,0.088 -100.7,-0.23943 -104,-0.72751 z m 197,-33.92054 c 9.89186,-1.38428 22.06094,-7.53799 29.34602,-14.8398 20.38123,-20.42806 20.51626,-55.01088 0.29336,-75.1337 -7.17278,-7.1373 -14.87381,-11.50968 -24.69669,-14.02195 -18.30663,-4.68204 -35.73261,-0.1293 -49.77152,13.00342 -32.0822,30.01132 -14.84979,84.62762 28.71603,91.01242 7.30539,1.07064 8.32568,1.06935 16.1128,-0.0204 z"
         id="path3067"
         transform="matrix(0.26458333,0,0,0.26458333,-146.16305,-111.07479)" />
      <path
         style="fill:none;fill-opacity:1;stroke:#000000;stroke-opacity:1;stroke-width:7.55905522;stroke-dasharray:none"
         d="m 409.1867,977.53339 c -6.69912,-1.15446 -18.1108,-4.48469 -23.42513,-6.83608 -20.8664,-9.23258 -38.8898,-28.03566 -47.43976,-49.49196 -8.64084,-21.68439 -7.95704,-47.99848 1.80688,-69.53234 9.72533,-21.44875 29.73711,-39.87108 51.62364,-47.52339 14.17444,-4.95588 13.89132,-4.94427 120.5645,-4.94427 87.18085,0 100.93919,0.20192 107.66203,1.58008 33.97478,6.96471 61.01024,33.11521 69.38993,67.11857 2.99704,12.16146 3.00612,29.40568 0.0219,41.51061 -7.78822,31.59118 -30.67657,55.43287 -62.90737,65.5276 l -8.79659,2.7551 -103,0.13345 c -56.65,0.0734 -104.125,-0.0604 -105.5,-0.29737 z m 31.01508,-37.52643 c 22.02302,-8.05473 36.0219,-28.13676 35.97014,-51.60083 -0.0328,-14.85707 -5.36781,-27.63677 -15.95852,-38.22748 -7.42241,-7.42241 -15.80183,-12.23712 -25.11977,-14.43352 -27.64764,-6.51701 -55.06538,7.95625 -64.56202,34.08097 -5.27265,14.50474 -3.74174,32.95094 3.83355,46.19116 6.94618,12.14066 20.27472,22.07682 34.42266,25.66139 8.5468,2.16545 23.0298,1.39474 31.41396,-1.67169 z"
         id="path3630"
         transform="matrix(0.26458333,0,0,0.26458333,-146.16305,-111.07479)" />
      <path
         style="fill:none;fill-opacity:1;stroke:#000000;stroke-opacity:1;stroke-width:7.55905522;stroke-dasharray:none"
         d="m 430.1867,758.15624 c -21.00358,-0.49077 -24.24362,-0.79523 -30.5,-2.86606 -24.58445,-8.1373 -42.50024,-23.32986 -53.7558,-45.58483 -4.4422,-8.78332 -5.51742,-12.02063 -7.30691,-22 -5.23828,-29.21197 3.87167,-57.97565 24.74634,-78.13391 11.12077,-10.73911 20.25198,-16.20494 35.74136,-21.39436 l 8.87002,-2.97173 h 103.88024 103.88023 l 7.97226,2.58695 c 11.6567,3.78253 19.51341,7.78328 28.32711,14.42461 8.74115,6.58665 14.68841,13.11731 21.39018,23.48844 8.33412,12.89723 12.21106,24.49025 13.28316,39.72 2.80124,39.79279 -21.60577,75.71659 -60.72584,89.38021 l -8.30235,2.89979 -82,0.5 c -45.1,0.275 -92.575,0.2529 -105.5,-0.0491 z M 610.47356,723.7325 c 41.54682,-8.80367 56.77913,-59.71502 26.80961,-89.60643 -21.11874,-21.0637 -54.10365,-20.8687 -75.2196,0.44468 -12.34444,12.45986 -17.36716,28.73687 -14.30642,46.36243 1.67071,9.62094 6.0947,18.65045 12.65412,25.82751 13.6229,14.90562 31.38912,20.92861 50.06229,16.97181 z"
         id="path3640"
         transform="matrix(0.26458333,0,0,0.26458333,-146.16305,-111.07479)" />
    </g>
    <path
       style="fill:none;fill-opacity:1;stroke:#000000;stroke-opacity:1"
       d="m 401.6867,975.24487 c -10.1046,-2.67103 -17.29467,-5.54435 -24.06025,-9.61505 -22.72131,-13.67092 -38.01927,-34.78997 -42.98619,-59.34307 -2.28069,-11.27418 -1.5747,-31.37605 1.47144,-41.8964 8.02368,-27.71113 30.33426,-50.94511 57.83147,-60.22502 l 9.74353,-3.2883 48,-0.80275 c 65.22763,-1.09087 160.70666,-0.10921 169.82375,1.74603 18.17398,3.69822 37.72188,15.86178 49.71673,30.93591 18.7714,23.59034 24.74877,54.8111 15.7853,82.44913 -9.30056,28.6774 -29.85492,48.68414 -60.76337,59.14447 l -8.43759,2.85553 -104.56241,-0.0551 c -98.45361,-0.0519 -104.97137,-0.16317 -111.56241,-1.90542 z m 38.8484,-34.8718 c 14.77866,-5.27002 27.4291,-17.87591 32.82244,-32.70685 2.64808,-7.28185 3.59986,-23.43145 1.87158,-31.75652 -1.94712,-9.37924 -6.62681,-17.43985 -14.96687,-25.7799 -12.46897,-12.46898 -23.12112,-16.49907 -41.49938,-15.7007 -15.26703,0.66321 -26.56262,5.60332 -36.55288,15.98637 -9.79074,10.17569 -14.06297,20.37704 -14.78172,35.29622 -1.25815,26.1157 12.62429,46.46886 37.70061,55.27319 5.75697,2.02128 7.9622,2.25186 18.05782,1.88809 8.27537,-0.29818 13.13991,-0.99916 17.3484,-2.4999 z"
       id="path3650"
       transform="matrix(0.26458333,0,0,0.26458333,-146.16305,-111.07479)" />
  </g>
</svg>
